# xmcd
#
# Track frame offsets:
#	150
#	12860
#	25420
#	36612
#	48380
#	60545
#	74032
#	87190
#	104202
#	117590
#	131800
#	145977
#	158555
#	171415
#	184335
#	195245
#
# Disc length: 2752 seconds
# Revision: 3
# Processed by: cddbd v1.5.2PL0 Copyright (c) Steve Scherf et al.
# Submitted via: dBpowerAMP V12.0
#
DISCID=f30abe10
DTITLE=Lefty Frizzell - That's the Way Love Goes: The Final Recordings of Lefty Frizzell
DYEAR=1996
DGENRE=Country
TTITLE0=That's the Way Love Goes
TTITLE1=If I Had Half the Sense (A Fool Was Born With)
TTITLE2=Life's Like Poetry
TTITLE3=I Never Go Around Mirrors
TTITLE4=Railroad Lady
TTITLE5=I Can't Get Over You to Save My Life
TTITLE6=Lucky Arms
TTITLE7=I'm Not That Good at Goodbye
TTITLE8=Falling
TTITLE9=I Love You a Thousand Ways
TTITLE10=If She Just Helps Me Get Over You
TTITLE11=I Buy the Wine
TTITLE12=She Found the Key
TTITLE13=Let Me Give Her the Flowers
TTITLE14=Yesterday Just Passed My Way Again
TTITLE15=My Wishing Room
EXTD=
EXTT0=
EXTT1=
EXTT2=
EXTT3=
EXTT4=
EXTT5=
EXTT6=
EXTT7=
EXTT8=
EXTT9=
EXTT10=
EXTT11=
EXTT12=
EXTT13=
EXTT14=
EXTT15=
PLAYORDER=
